<?xml version="1.0" encoding="UTF-8" standalone="no"?>
<svg id="svg3"
     width="1024" height="1024" viewBox="0 0 1024 1024"
     aria-label="SnipSnip logo"
     inkscape:version="1.4.3 (0d15f75042, 2025-12-25)"
     lang="nl-NL"
     role="img"
     sodipodi:docname="alt-icon.svg"
     xmlns="http://www.w3.org/2000/svg"
     xmlns:inkscape="http://www.inkscape.org/namespaces/inkscape"
     xmlns:sodipodi="http://sodipodi.sourceforge.net/DTD/sodipodi-0.dtd"
     xmlns:svg="http://www.w3.org/2000/svg"
     version="1.1">
	<sodipodi:namedview id="namedview3"
	                    bordercolor="#ffffff"
	                    borderopacity="1"
	                    inkscape:current-layer="svg3"
	                    inkscape:cx="512.44404"
	                    inkscape:cy="527.98611"
	                    inkscape:deskcolor="#505050"
	                    inkscape:pagecheckerboard="1"
	                    inkscape:pageopacity="0"
	                    inkscape:showpageshadow="0"
	                    inkscape:window-height="1371"
	                    inkscape:window-maximized="1"
	                    inkscape:window-width="2502"
	                    inkscape:window-x="0"
	                    inkscape:window-y="0"
	                    inkscape:zoom="1.1259766"
	                    pagecolor="#505050" />
	<title id="title1">
		SnipSnip
	</title>
	<desc id="desc1"
	      lang="nl-NL">
		Zwarte afgeronde rechthoek met een witte geometrische letter S en een witte pijl naar beneden, in de stijl van de MarkDownload-extensie.
	</desc>
	<defs id="defs1">
		<filter id="halo"
		        x="-0.038312429" y="-0.062569832" width="1.0766249" height="1.1251397">
			<feGaussianBlur id="feGaussianBlur1"
			                stdDeviation="14" />
		</filter>
	</defs>
	<rect id="rect1"
	      x="74" y="244" rx="62" ry="62" width="877" height="537"
	      fill="#ffffff" opacity="0.18"
	      filter="url(#halo)" inkscape:label="glow" />
	<rect id="rect2"
	      x="74" y="244" rx="62" ry="62" width="877" height="537"
	      fill="#000000"
	      inkscape:label="pill" />
	<path id="path2"
	      d="m 331.62,687.72
	         c 86.71,0 138.92,-37.49 138.92,-105.34 0,-51.98 -31.51,-88.78 -107.18,-104.88
	         l -28.06,-5.98
	         c -32.43,-6.9 -46,-16.33 -46,-32.66 0,-15.18 12.65,-26.22 41.4,-26.22 30.13,0 44.39,13.11 46,35.42
	         h 89.24 C 465.48,380.9 413.73,336.28 330.7,336.28
	         c -81.42,0 -138.46,43.93 -138.46,109.02 0,53.59 37.03,83.72 97.52,96.6 l 34.5,7.36
	         c 37.95,8.05 51.52,17.71 51.52,33.12 0,17.02 -15.87,28.98 -45.54,28.98 -35.88,0 -56.81,-16.79 -58.42,-48.3
	         H 183.5 c 0.46,86.02 58.65,124.66 148.12,124.66 z"
	      fill="#ffffff"
	      style="stroke-width:0.23"
	      inkscape:label="letter-s" />
	<path id="path3"
	      d="m 673.5,367 h 84 v 142 h 84 l -125,148 -125,-148 h 82 z"
	      fill="#ffffff"
	      inkscape:label="down-arrow" />
</svg>
